<svg xmlns="http://www.w3.org/2000/svg" version="1.1" xmlns:xlink="http://www.w3.org/1999/xlink" xmlns:svgjs="http://svgjs.dev/svgjs" width="100%" height="100%" viewBox="0 0 1000 600"><rect width="1000" height="600" x="0" y="0" fill="#ee4e34"/><g><rect width="333.3333333333333" height="333.3333333333333" rx="13.333333333333334" ry="13.333333333333334" y="212.88579530614078" fill="#fcedda" transform="matrix(0.6556049989244005,0,0,0.6556049989244005,0,51.16349238378362)" x="190.66358947753906"/><path d="M316.8243018185047 454.5524616026378L305.901683101572 454.5524616026378Q303.5504926965647 454.5524616026378 302.2707308305481 453.15365212117774Q300.9612070606706 451.7548426397177 300.9612070606706 449.61198556173633L300.9612070606706 449.61198556173633L300.9612070606706 309.7012755118713Q300.9612070606706 307.35008510686396 302.2707308305481 305.9512756254039Q303.5504926965647 304.5524661439439 305.901683101572 304.5524661439439L305.901683101572 304.5524661439439L358.1933481850889 304.5524661439439Q382.38977602396153 304.5524661439439 396.55644226172706 315.92151341878935Q410.69334659563174 327.26079878977396 410.69334659563174 349.5524647815521L410.69334659563174 349.5524647815521Q410.69334659563174 366.04055952046406 402.44929922617575 376.45722587176226Q394.1754899528589 386.84413031919956 380.03858561895424 390.9215111481363L380.03858561895424 390.9215111481363L413.044537000639 447.9155570416678Q413.6992988855778 449.1953189076844 413.6992988855778 450.2667474466751L413.6992988855778 450.2667474466751Q413.6992988855778 451.9929378706045 412.3004894041178 453.2726997366211Q410.9016799226577 454.5524616026378 409.1754894987283 454.5524616026378L409.1754894987283 454.5524616026378L398.90763266673434 454.5524616026378Q395.24691849184956 454.5524616026378 393.550489971781 452.6179378516824Q391.82429954785164 450.683414100727 390.544537681835 448.77865225363246L390.544537681835 448.77865225363246L359.47311005110555 394.34413009213426L321.97311118643205 394.34413009213426L321.97311118643205 449.61198556173633Q321.97311118643205 451.7548426397177 320.574301704972 453.15365212117774Q319.175492223512 454.5524616026378 316.8243018185047 454.5524616026378L316.8243018185047 454.5524616026378ZM321.97311118643205 322.5584179797593L321.97311118643205 376.12984492929286L357.3302529731242 376.12984492929286Q373.40168105798426 376.12984492929286 381.31834748497084 369.37389275287944Q389.2647758158183 362.6179405764661 389.2647758158183 349.3441314545261L389.2647758158183 349.3441314545261Q389.2647758158183 336.27865565961207 381.4373951004143 329.4036558677553Q373.61001438501023 322.5584179797593 357.3302529731242 322.5584179797593L357.3302529731242 322.5584179797593L321.97311118643205 322.5584179797593Z " fill="#ee4e34" transform="matrix(0.6556049989244005,0,0,0.6556049989244005,0,51.16349238378362)"/><path d="M622.7527059954697 452.46913237270405L612.1334930637637 452.46913237270405Q609.8476134408625 452.46913237270405 608.6034004815617 451.10917867300327Q607.330252337161 449.7492249733025 607.330252337161 447.6658916461014L607.330252337161 447.6658916461014L607.330252337161 311.6415864909251Q607.330252337161 309.3557068680238 608.6034004815617 307.99575316832306Q609.8476134408625 306.6357994686223 612.1334930637637 306.6357994686223L612.1334930637637 306.6357994686223L662.9726132844921 306.6357994686223Q686.4969187708055 306.6357994686223 700.2700668784131 317.6890401768285Q714.0142798009208 328.7133456999347 714.0142798009208 350.3857993398468L714.0142798009208 350.3857993398468Q714.0142798009208 366.4158918852558 705.9992335282163 376.5432066702615Q697.9552520704118 386.6415862701671 684.2110391479041 390.60570662886937L684.2110391479041 390.60570662886937L716.3001594238222 446.01658609540044Q716.9367334960225 447.2607990547011 716.9367334960225 448.30246571830173L716.9367334960225 448.30246571830173Q716.9367334960225 449.9807064541027 715.5767797963217 451.2249194134033Q714.2168260966209 452.46913237270405 712.53858536082 452.46913237270405L712.53858536082 452.46913237270405L702.5559465013145 452.46913237270405Q698.9969187340124 452.46913237270405 697.3476131833115 450.58834534120297Q695.6693724475106 448.70755830970194 694.4251594882098 446.8557064633009L694.4251594882098 446.8557064633009L664.2168262437929 393.9332529153712L627.7584930177725 393.9332529153712L627.7584930177725 447.6658916461014Q627.7584930177725 449.7492249733025 626.3985393180717 451.10917867300327Q625.0385856183709 452.46913237270405 622.7527059954697 452.46913237270405L622.7527059954697 452.46913237270405ZM627.7584930177725 324.1415864541321L627.7584930177725 376.2249196341613L662.1334929165918 376.2249196341613Q677.7584928706005 376.2249196341613 685.4552521072048 369.6566326164576Q693.1809465289091 363.0883455987539 693.1809465289091 350.1832530441467L693.1809465289091 350.1832530441467Q693.1809465289091 337.4807067852396 685.5709928476049 330.79667902713584Q677.9610391663007 324.1415864541321 662.1334929165918 324.1415864541321L662.1334929165918 324.1415864541321L627.7584930177725 324.1415864541321ZM785.4552518128609 454.5524656999052L785.4552518128609 454.5524656999052Q769.6277055631521 454.5524656999052 759.0084926314461 448.50501201400186Q748.3892796997401 442.45755832809846 742.7469186052369 431.75153984109244Q737.1334926958338 421.0165861689864 736.4969186236334 407.2723732464787L736.4969186236334 407.2723732464787Q736.2943723279333 403.7133454791767 736.2943723279333 398.1867251250736Q736.2943723279333 392.68903995607053 736.4969186236334 389.3325584844687L736.4969186236334 389.3325584844687Q737.1334926958338 375.38579926626085 742.862659345637 364.76658633455486Q748.5918259954402 354.1473734028489 759.2110389271462 348.0999197169455Q769.8302518588522 342.0524660310422 785.4552518128609 342.0524660310422L785.4552518128609 342.0524660310422Q801.0802517668697 342.0524660310422 811.7283998836757 348.0999197169455Q822.3476128153816 354.1473734028489 828.0767794651848 364.76658633455486Q833.805946114988 375.38579926626085 834.4135850020883 389.3325584844687L834.4135850020883 389.3325584844687Q834.6450664828885 392.68903995607053 834.6450664828885 398.1867251250736Q834.6450664828885 403.7133454791767 834.4135850020883 407.2723732464787L834.4135850020883 407.2723732464787Q833.805946114988 421.0165861689864 828.1635850204849 431.75153984109244Q822.5501591110817 442.45755832809846 811.9309461793757 448.50501201400186Q801.3117332476698 454.5524656999052 785.4552518128609 454.5524656999052ZM785.4552518128609 438.5223731544962L785.4552518128609 438.5223731544962Q798.3892795525682 438.5223731544962 806.0860387891724 430.2758454009916Q813.8117332108768 422.058252832587 814.4193720979772 406.2307065828781L814.4193720979772 406.2307065828781Q814.6219183936772 403.1057065920764 814.6219183936772 398.30246586547366Q814.6219183936772 393.499225138871 814.4193720979772 390.37422514806923L814.4193720979772 390.37422514806923Q813.8117332108768 374.54667889836037 806.0860387891724 366.32908632995577Q798.3892795525682 358.0825585764511 785.4552518128609 358.0825585764511L785.4552518128609 358.0825585764511Q772.5501592582536 358.0825585764511 764.7376592812493 366.32908632995577Q756.9251593042449 374.54667889836037 756.5200667128447 390.37422514806923L756.5200667128447 390.37422514806923Q756.2885852320445 393.499225138871 756.2885852320445 398.30246586547366Q756.2885852320445 403.1057065920764 756.5200667128447 406.2307065828781L756.5200667128447 406.2307065828781Q756.9251593042449 422.058252832587 764.7376592812493 430.2758454009916Q772.5501592582536 438.5223731544962 785.4552518128609 438.5223731544962ZM915.895066243734 454.5524656999052L915.895066243734 454.5524656999052Q896.7110385224233 454.5524656999052 884.1242330039162 447.46334535040126Q871.5084923003092 440.37422500089724 865.0559460230055 427.67167874199015Q858.603399745702 414.96913248308306 857.9668256735016 398.09991956977353L857.9668256735016 398.09991956977353Q857.7642793778015 389.56403996526876 857.7642793778015 379.7550122163633Q857.7642793778015 369.9749196525578 857.9668256735016 361.00501227155274L857.9668256735016 361.00501227155274Q858.603399745702 344.13579935824333 865.0559460230055 331.4332530993362Q871.5084923003092 318.73070684042904 884.1242330039162 311.6415864909251Q896.7110385224233 304.5524661414211 915.895066243734 304.5524661414211L915.895066243734 304.5524661414211Q930.2469180533421 304.5524661414211 941.0976124658482 308.51658650012337Q951.9193716932542 312.48070685882556 959.1242327831584 319.1357994318293Q966.3001586879624 325.790892004833 970.0617327509644 334.03741975833765Q973.7943716288665 342.25501232674225 974.2283994053668 351.02237341204716L974.2283994053668 351.02237341204716Q974.4309457010669 352.8742252584482 973.0709920013661 354.1473734028489Q971.7110383016653 355.3915863621496 969.8302512701642 355.3915863621496L969.8302512701642 355.3915863621496L958.3719179705579 355.3915863621496Q956.5200661241569 355.3915863621496 955.1601124244561 354.34991969854906Q953.8001587247553 353.30825303494845 953.163584652555 350.58834563554694L953.163584652555 350.58834563554694Q949.6334920703531 334.3557067944378 939.9402050618475 328.3082531085344Q930.2469180533421 322.260799422631 915.895066243734 322.260799422631L915.895066243734 322.260799422631Q898.9969181453246 322.260799422631 889.2168255815192 331.75154013543636Q879.4367330177137 341.21334566314164 878.8001589455133 362.04667893515335L878.8001589455133 362.04667893515335Q878.163584873313 379.1473733292629 878.8001589455133 397.058252906173L878.8001589455133 397.058252906173Q879.4367330177137 417.89158617818464 889.2168255815192 427.35339170589Q898.9969181453246 436.84413241869527 915.895066243734 436.84413241869527L915.895066243734 436.84413241869527Q930.2469180533421 436.84413241869527 939.9402050618475 430.7966787327919Q949.6334920703531 424.7492250468885 953.163584652555 408.5165862057794L953.163584652555 408.5165862057794Q953.8001587247553 405.7966788063779 955.1601124244561 404.75501214277733Q956.5200661241569 403.7133454791767 958.3719179705579 403.7133454791767L958.3719179705579 403.7133454791767L969.8302512701642 403.7133454791767Q971.7110383016653 403.7133454791767 973.0709920013661 404.8707528831774Q974.4309457010669 405.999225102078 974.2283994053668 407.88001213357904L974.2283994053668 407.88001213357904Q973.7943716288665 416.64737321888396 970.0617327509644 424.98070652768865Q966.3001586879624 433.3140398364933 959.1242327831584 439.96913240949704Q951.9193716932542 446.6242249825008 941.0976124658482 450.58834534120297Q930.2469180533421 454.5524656999052 915.895066243734 454.5524656999052ZM1043.7885843858057 454.5524656999052L1043.7885843858057 454.5524656999052Q1027.961038136097 454.5524656999052 1017.3418252043911 448.50501201400186Q1006.7226122726851 442.45755832809846 1001.0802511781818 431.75153984109244Q995.4668252687787 421.0165861689864 994.8302511965784 407.2723732464787L994.8302511965784 407.2723732464787Q994.6277049008783 403.7133454791767 994.6277049008783 398.1867251250736Q994.6277049008783 392.68903995607053 994.8302511965784 389.3325584844687L994.8302511965784 389.3325584844687Q995.4668252687787 375.38579926626085 1001.1959919185819 364.76658633455486Q1006.9251585683852 354.1473734028489 1017.5443715000911 348.0999197169455Q1028.163584431797 342.0524660310422 1043.7885843858057 342.0524660310422L1043.7885843858057 342.0524660310422Q1059.4135843398144 342.0524660310422 1070.0617324566206 348.0999197169455Q1080.6809453883266 354.1473734028489 1086.4101120381297 364.76658633455486Q1092.1392786879328 375.38579926626085 1092.7469175750334 389.3325584844687L1092.7469175750334 389.3325584844687Q1092.9783990558335 392.68903995607053 1092.9783990558335 398.1867251250736Q1092.9783990558335 403.7133454791767 1092.7469175750334 407.2723732464787L1092.7469175750334 407.2723732464787Q1092.1392786879328 421.0165861689864 1086.4969175934298 431.75153984109244Q1080.8834916840265 442.45755832809846 1070.2642787523205 448.50501201400186Q1059.6450658206147 454.5524656999052 1043.7885843858057 454.5524656999052ZM1043.7885843858057 438.5223731544962L1043.7885843858057 438.5223731544962Q1056.722612125513 438.5223731544962 1064.4193713621173 430.2758454009916Q1072.1450657838218 422.058252832587 1072.752704670922 406.2307065828781L1072.752704670922 406.2307065828781Q1072.9552509666223 403.1057065920764 1072.9552509666223 398.30246586547366Q1072.9552509666223 393.499225138871 1072.752704670922 390.37422514806923L1072.752704670922 390.37422514806923Q1072.1450657838218 374.54667889836037 1064.4193713621173 366.32908632995577Q1056.722612125513 358.0825585764511 1043.7885843858057 358.0825585764511L1043.7885843858057 358.0825585764511Q1030.8834918311986 358.0825585764511 1023.0709918541942 366.32908632995577Q1015.2584918771898 374.54667889836037 1014.8533992857896 390.37422514806923L1014.8533992857896 390.37422514806923Q1014.6219178049895 393.499225138871 1014.6219178049895 398.30246586547366Q1014.6219178049895 403.1057065920764 1014.8533992857896 406.2307065828781L1014.8533992857896 406.2307065828781Q1015.2584918771898 422.058252832587 1023.0709918541942 430.2758454009916Q1030.8834918311986 438.5223731544962 1043.7885843858057 438.5223731544962ZM1158.60339886267 454.5524656999052L1158.60339886267 454.5524656999052Q1147.1450655630638 454.5524656999052 1138.811732254259 450.501539785903Q1130.4783989454545 446.42167868680065 1125.1543248870514 439.4482990776968Q1119.8302508286483 432.4749194685929 1117.226084169647 423.50501208758783Q1114.6219175106455 414.5640398916828 1114.2168249192453 404.5524658470772L1114.2168249192453 404.5524658470772Q1114.0142786235451 401.2249195605753 1114.0142786235451 398.30246586547366Q1114.0142786235451 395.380012170372 1114.2168249192453 392.0524658838702L1114.2168249192453 392.0524658838702Q1114.6219175106455 382.2723733200647 1117.226084169647 373.30246593905963Q1119.8302508286483 364.33255855805464 1125.1543248870514 357.2723733936507Q1130.4783989454545 350.1832530441467 1138.811732254259 346.1033919450444Q1147.1450655630638 342.0524660310422 1158.60339886267 342.0524660310422L1158.60339886267 342.0524660310422Q1170.8719173450772 342.0524660310422 1179.0027043581817 346.42167898114457Q1187.1334913712863 350.790891931247 1192.3418246892893 357.2723733936507L1192.3418246892893 357.2723733936507L1192.3418246892893 309.3557068680238Q1192.3418246892893 307.2723735408226 1193.7017783889899 305.91241984112185Q1195.0617320886906 304.5524661414211 1197.1450654158918 304.5524661414211L1197.1450654158918 304.5524661414211L1207.1277042753975 304.5524661414211Q1209.2110376025987 304.5524661414211 1210.5709913022993 305.91241984112185Q1211.930945002 307.2723735408226 1211.930945002 309.3557068680238L1211.930945002 309.3557068680238L1211.930945002 447.6658916461014Q1211.930945002 449.7492249733025 1210.5709913022993 451.10917867300327Q1209.2110376025987 452.46913237270405 1207.1277042753975 452.46913237270405L1207.1277042753975 452.46913237270405L1197.7527043029922 452.46913237270405Q1195.466824680091 452.46913237270405 1194.2226117207902 451.10917867300327Q1192.9783987614894 449.7492249733025 1192.9783987614894 447.6658916461014L1192.9783987614894 447.6658916461014L1192.9783987614894 438.9274657458965Q1187.7700654434866 445.58255831890017 1179.4367321346817 450.0675120094027Q1171.1033988258773 454.5524656999052 1158.60339886267 454.5524656999052ZM1162.9726118127728 437.68325278659574L1162.9726118127728 437.68325278659574Q1173.3892784487784 437.68325278659574 1179.639278430382 432.8800120599931Q1185.8892784119855 428.10570651849036 1189.014278402787 420.69829913288623Q1192.139278393589 413.2908917472821 1192.3418246892893 405.59413251067775L1192.3418246892893 405.59413251067775Q1192.5443709849892 402.2665862241759 1192.5443709849892 397.5790862379733Q1192.5443709849892 392.89158625177066 1192.3418246892893 389.56403996526876L1192.3418246892893 389.56403996526876Q1192.139278393589 382.2723733200647 1188.8985376623873 375.1832529705607Q1185.6867321162854 368.09413262105676 1179.320991394282 363.5223733752542Q1172.9552506722782 358.9216789443516 1162.9726118127728 358.9216789443516L1162.9726118127728 358.9216789443516Q1152.3533988810668 358.9216789443516 1146.1033988994632 363.6091789305542Q1139.8533989178597 368.29667891675683 1137.1334915184582 375.90663259806115Q1134.4135841190564 383.5165862793654 1134.0084915276564 392.25501217957026L1134.0084915276564 392.25501217957026Q1133.8059452319562 398.30246586547366 1134.0084915276564 404.34991955137707L1134.0084915276564 404.34991955137707Q1134.4135841190564 413.088345451582 1137.1334915184582 420.69829913288623Q1139.8533989178597 428.3082528141905 1146.1033988994632 432.9957528003931Q1152.3533988810668 437.68325278659574 1162.9726118127728 437.68325278659574ZM1286.2943707090417 454.5524656999052L1286.2943707090417 454.5524656999052Q1264.6219170691297 454.5524656999052 1251.9193708102225 441.3290861091978Q1239.2168245513153 428.10570651849036 1237.9726115920148 405.18903991927755L1237.9726115920148 405.18903991927755Q1237.7700652963144 402.469132519876 1237.7700652963144 398.1867251250736Q1237.7700652963144 393.9332529153712 1237.9726115920148 391.2133455159697L1237.9726115920148 391.2133455159697Q1238.811731959915 376.4274659298614 1244.8302504607186 365.28741966635516Q1250.877704146622 354.1473734028489 1261.4101115230278 348.0999197169455Q1271.913583714334 342.0524660310422 1286.0918244133418 342.0524660310422L1286.0918244133418 342.0524660310422Q1301.9193706630508 342.0524660310422 1312.6543243351566 348.70755860404586Q1323.3892780072624 355.3915863621496 1329.0027039166657 367.6890400296565Q1334.6450650111688 379.9575585120634 1334.6450650111688 396.42167883397263L1334.6450650111688 396.42167883397263L1334.6450650111688 399.9807066012746Q1334.6450650111688 402.2665862241759 1333.285111311468 403.5107991834766Q1331.9251576117676 404.75501214277733 1329.8418242845664 404.75501214277733L1329.8418242845664 404.75501214277733L1257.764278200426 404.75501214277733Q1257.764278200426 404.9575584384774 1257.764278200426 405.59413251067775Q1257.764278200426 406.2307065828781 1257.764278200426 406.6357991742783L1257.764278200426 406.6357991742783Q1258.1693707918262 415.17167877878313 1261.496917078328 422.57908616438726Q1264.8533985499298 429.95755836489144 1271.1902040868335 434.55825279579403Q1277.555944808837 439.1300120415966 1286.0918244133418 439.1300120415966L1286.0918244133418 439.1300120415966Q1293.586037354246 439.1300120415966 1298.5918243765486 436.84413241869527Q1303.5976113988518 434.55825279579403 1306.7226113896531 431.75153984109244Q1309.847611380455 428.91589170129083 1310.8892780440556 427.2665861505899L1310.8892780440556 427.2665861505899Q1312.7700650755569 424.7492250468885 1313.811731739157 424.2283917150882Q1314.853398402758 423.7075583832879 1317.1392780256592 423.7075583832879L1317.1392780256592 423.7075583832879L1327.353398365965 423.7075583832879Q1329.205250212366 423.7075583832879 1330.5652039120669 424.86496578728855Q1331.9251576117676 426.0223731912892 1331.7226113160673 428.10570651849036L1331.7226113160673 428.10570651849036Q1331.5200650203674 431.23070650929213 1328.3950650295656 435.6867250146946Q1325.2700650387637 440.17167870519717 1319.5408983889606 444.5408916552996Q1313.811731739157 448.9390397905021 1305.3626576899524 451.7457527452036Q1296.9135836407477 454.5524656999052 1286.2943707090417 454.5524656999052ZM1257.764278200426 389.7665862609689L1257.764278200426 390.37422514806923L1314.853398402758 390.37422514806923L1314.853398402758 389.7665862609689Q1314.853398402758 380.39158628856364 1311.410111375856 373.09991964335956Q1307.966824348954 365.80825299815547 1301.5142780716506 361.52584560335305Q1295.061731794347 357.2723733936507 1286.0918244133418 357.2723733936507L1286.0918244133418 357.2723733936507Q1277.1219170323366 357.2723733936507 1270.7851114954333 361.52584560335305Q1264.4193707734298 365.80825299815547 1261.0918244869276 373.09991964335956Q1257.764278200426 380.39158628856364 1257.764278200426 389.7665862609689L1257.764278200426 389.7665862609689Z " fill="#fcedda" transform="matrix(0.6556049989244005,0,0,0.6556049989244005,0,51.16349238378362)"/></g></svg>