<svg xmlns="http://www.w3.org/2000/svg" version="1.1" xmlns:xlink="http://www.w3.org/1999/xlink" xmlns:svgjs="http://svgjs.dev/svgjs" width="100%" height="100%" viewBox="0 0 1000 600"><rect width="1000" height="600" x="0" y="0" fill="#151515"/><g><rect width="333.3333333333333" height="333.3333333333333" y="181.2707729196522" fill="#e2703a" transform="matrix(0.7859237297046472,0,0,0.785923729704647,0,26.547733658379116)" x="159.048583984375"/><path d="M222.5009699954186 351.8064935895492Q219.78271597230054 348.8104617830468 219.78271597230054 344.8025251942157Q219.78271597230054 340.79458860538466 222.5009699954186 336.94538217848765L222.5009699954186 336.94538217848765Q232.20335114362837 332.3818900228879 243.57239899214412 324.584270817885Q254.92160557041814 316.8064928831237 262.6398596944541 312.22315945728235Q270.3581138184901 307.6596673016826 275.9335107564184 307.6596673016826Q281.489066424105 307.6596673016826 284.06843155553094 318.2350643405289L284.06843155553094 318.2350643405289Q274.9216059740898 321.6676040923495 257.2827167291849 332.302524941921Q239.64382748428005 342.93744579149234 236.92557346116197 344.3660172488975L236.92557346116197 344.3660172488975Q239.7827163759722 345.9533188682366 257.20335164821796 356.44935082611585Q274.6438281907055 366.9453827839951 284.06843155553094 370.51681142750795L284.06843155553094 370.51681142750795Q281.489066424105 381.0922084663541 275.9335107564184 381.0922084663541Q270.3581138184901 381.0922084663541 262.6398596944541 376.50887504051275Q254.92160557041814 371.945382884913 243.57239899214412 364.1676049501518Q232.20335114362837 356.3699857451488 222.5009699954186 351.8064935895492L222.5009699954186 351.8064935895492ZM350.13986146051775 274.5842698087057Q351.35017894526374 275.65569840175954 353.2747821587123 279.4453810179315Q355.2192266424026 283.23506363410337 355.2192266424026 288.1556986540544Q355.2192266424026 293.0961749442471 344.50494071186415 319.6636357979339Q333.79065478132577 346.2310966516209 322.00494025773355 377.3025258501822Q310.21922573414133 408.3739550487436 308.2152574397258 422.9374474061791L308.2152574397258 422.9374474061791Q307.064463765705 422.9374474061791 304.5049399045208 421.8064950024001Q301.9255747730949 420.6557013283792 300.3581144239976 419.3660187626663Q298.7906540749004 418.09617746719505 297.50097150918737 415.37792344407694Q296.2112889434744 412.65966942095895 296.2112889434744 409.2271296691383L296.2112889434744 409.2271296691383Q296.2112889434744 402.7985581108153 308.07636854803366 375.2985575557667Q319.9216068823511 347.7985570007181 332.9970039716563 316.7271278021568Q346.0724010609615 285.6556986035954 348.21525824706913 272.9374443786415L348.21525824706913 272.9374443786415Q348.9295439757717 273.51284121565186 350.13986146051775 274.5842698087057ZM428.9295455904584 336.94538217848765Q431.6477996135765 339.94141398498994 431.6477996135765 343.949350573821Q431.6477996135765 347.9374458924103 428.9295455904584 351.8064935895492L428.9295455904584 351.8064935895492Q419.2073231720069 356.3699857451488 407.8581165937329 364.1676049501518Q396.4890687452172 371.945382884913 388.7906558914229 376.50887504051275Q381.0724017673869 381.0922084663541 375.4970048294586 381.0922084663541Q369.9216078915303 381.0922084663541 367.3620840303461 370.51681142750795L367.3620840303461 370.51681142750795Q376.4890683415455 367.0842716756872 394.14779885669213 356.44935082611585Q411.78668810159695 345.79458870630265 414.50494212471506 344.3660172488975L414.50494212471506 344.3660172488975Q411.6477992099048 342.79855689980025 394.2073226674173 332.302524941921Q376.78668739517155 321.8064929840417 367.3620840303461 318.2350643405289L367.3620840303461 318.2350643405289Q369.9216078915303 307.6596673016826 375.4970048294586 307.6596673016826Q381.0724017673869 307.6596673016826 388.7906558914229 312.22315945728235Q396.4890687452172 316.8064928831237 407.8581165937329 324.584270817885Q419.2073231720069 332.3818900228879 428.9295455904584 336.94538217848765L428.9295455904584 336.94538217848765Z " fill="#b4a5a5" transform="matrix(0.7859237297046472,0,0,0.785923729704647,0,26.547733658379116)"/><path d="M589.0029847904752 418.2939968960992Q582.28656693668 418.2939968960992 579.011276748718 415.2467332402106Q575.7152568760223 412.1787398995881 575.7152568760223 405.23429551371953Q575.7152568760223 398.31058081258493 580.7318405816347 362.8628199175545Q585.7276946025133 327.415059022524 585.7276946025133 312.26165948201685Q585.7276946025133 297.1082599415097 583.6339964443857 292.48554024584195L583.6339964443857 292.48554024584195Q595.5742948511329 293.6671322756763 599.1605303101037 304.28073085945147L599.1605303101037 304.28073085945147Q610.2094522732916 298.31058165607794 623.3313427098731 298.31058165607794Q636.4739628311885 298.31058165607794 644.6829179858271 306.7268336580559Q652.8918731404658 315.16381534476784 652.8918731404658 326.2956560468915Q652.8918731404658 337.4067670642812 646.2376443408723 346.88023298768985Q639.6041452260129 356.3536989110986 626.0262017252847 360.83131081362876L626.0262017252847 360.83131081362876L628.1198998834122 367.2575130811489Q633.4888882295018 383.5303155972887 643.6257040643964 399.5750915813551Q653.783249584025 415.6198675654215 660.209451851545 421.4449089756574L660.209451851545 421.4449089756574Q657.0585397719868 422.93744627650085 651.1713093075491 422.93744627650085Q645.2840788431113 422.93744627650085 638.9407953145269 417.713565723549Q632.5975117859425 412.4896851705971 627.3736312329906 402.9333005082526L627.3736312329906 402.9333005082526Q618.4184074279303 386.2044449279664 611.2459365099885 363.8163854153155L611.2459365099885 363.8163854153155Q605.876948163899 364.1273306863246 603.0369813553498 364.1273306863246L603.0369813553498 364.1273306863246L602.5809282912032 358.75834234023523Q619.3097838714896 358.15718148295105 628.4930342086232 349.0568498847532Q637.6555548610228 339.9357886018214 637.6555548610228 327.56016681566155L637.6555548610228 327.56016681566155Q637.6555548610228 319.6414272472981 632.3694852538691 314.41754669434624Q627.0626859619815 309.1936661413943 618.1074621569212 309.1936661413943Q609.1522383518609 309.1936661413943 600.5079598178096 312.32384853621863L600.5079598178096 312.32384853621863Q600.5079598178096 318.1488899464547 596.2376447626189 350.09333412144997Q591.9880593921619 382.03777829644525 591.9880593921619 403.3686238876653L591.9880593921619 403.3686238876653Q591.9880593921619 412.7799007568723 592.8794358357212 418.00378130982415L592.8794358357212 418.00378130982415Q589.3139300614841 418.2939968960992 589.0029847904752 418.2939968960992L589.0029847904752 418.2939968960992ZM730.5038127843219 366.73927096280056Q730.5038127843219 352.18703227957747 726.8346585864152 345.8437487509931Q723.1862340732425 339.5004652224087 716.3868974805115 339.5004652224087Q709.6082905725144 339.5004652224087 702.7467649255816 346.13396433726814Q695.8645095939149 352.78819313686165 691.9258694944671 362.55187464654546Q687.9664997102853 372.3362858409632 687.9664997102853 382.84623600106875Q687.9664997102853 393.37691584590823 691.988058548669 401.0676288821984Q696.0303470717864 408.75834191848867 704.239302226425 408.75834191848867L704.239302226425 408.75834191848867Q715.868655362163 408.75834191848867 723.1862340732425 395.0145609398892Q730.5038127843219 381.29150964602354 730.5038127843219 366.73927096280056ZM687.2202310598636 360.99714829150025Q692.8794349922282 344.8694535684981 702.5187383935083 337.48968580321696Q712.1373121100546 330.08918835320173 722.06683109761 330.08918835320173Q731.9963500851652 330.08918835320173 738.567660145823 338.8163856261888Q745.1182405217468 347.5643125839098 745.1182405217468 362.4896855923437L745.1182405217468 362.4896855923437Q745.1182405217468 378.9075959016209 738.857875732098 392.92086278176157L738.857875732098 392.92086278176157Q731.8512422920277 408.44739664747965 718.5635143775748 414.56265364399076L718.5635143775748 414.56265364399076Q711.3910434596329 418.00378130982415 702.7467649255816 418.00378130982415L702.7467649255816 418.00378130982415Q690.6406290409631 418.00378130982415 681.5402974427652 407.9291545291312Q672.4399658445673 397.8545277484384 672.4399658445673 379.1148927489603Q672.4399658445673 360.39598743421607 680.5038132060683 346.6522064556166Q688.5676605675694 332.92915516175094 702.4358196545727 327.56016681566155L702.4358196545727 327.56016681566155Q705.4208942562593 327.56016681566155 705.4208942562593 330.5452414173484L705.4208942562593 330.5452414173484Q690.6406290409631 340.2467338728304 687.2202310598636 360.99714829150025L687.2202310598636 360.99714829150025ZM803.0369796683638 418.00378130982415L803.0369796683638 418.00378130982415Q786.4739615659489 418.00378130982415 775.1348240164859 404.57094560223356Q763.7749567822891 391.1381098946431 763.7749567822891 365.4747601940304L763.7749567822891 365.4747601940304Q763.7749567822891 346.50709866247905 769.9109434635341 330.9183757425592Q776.0262004600452 315.3089231379055 789.0859018424248 305.40013383508403Q802.1456032248045 295.47061484752874 818.5635135340817 295.47061484752874Q834.981423843359 295.47061484752874 842.4441103475759 303.45154347009407Q849.9067968517929 311.4324720926594 849.9067968517929 321.7351254054256Q849.9067968517929 332.0377787181917 844.6829162988411 338.23595445363856Q839.4590357458892 344.41340050435156 831.1049727981131 344.41340050435156L831.1049727981131 344.41340050435156Q828.4101137827014 344.41340050435156 824.5336627374553 343.23180847451715L824.5336627374553 343.23180847451715Q827.9540607185547 339.64557301554623 830.5660009950307 333.1571816938243Q833.1779412715066 326.6687903721023 833.1779412715066 320.09748031144466Q833.1779412715066 313.526170250787 829.6746245514714 308.82053181618346Q826.1713078314363 304.11489338158 818.5635135340817 304.11489338158L818.5635135340817 304.11489338158Q807.0585385067473 304.11489338158 798.0411256474852 313.60908898972275Q789.0029831034891 323.0825549131314 784.4631821467572 336.8885249459328Q779.9026515052913 350.69449497873404 779.9026515052913 365.3089227161589L779.9026515052913 365.3089227161589Q779.9026515052913 385.9142293416912 787.8213910736547 396.1339639155217Q795.7194009572843 406.35369848935204 808.2608602213156 406.35369848935204L808.2608602213156 406.35369848935204Q816.6149231690918 406.35369848935204 825.4250391810145 401.2956554142718Q834.2351551929373 396.21688265445744 839.8943591253019 386.66049799211294L839.8943591253019 386.66049799211294Q842.1331650765669 386.66049799211294 844.0817554415569 388.00792749981883Q846.0303458065468 389.3553570075246 846.0303458065468 390.68205683049655L846.0303458065468 390.68205683049655Q837.6555531740368 406.51953596722365 824.968986116868 412.63479296373464L824.968986116868 412.63479296373464Q813.940793838414 418.00378130982415 803.0369796683638 418.00378130982415ZM922.1497481495596 366.73927096280056Q922.1497481495596 352.18703227957747 918.480593951653 345.8437487509931Q914.8321694384803 339.5004652224087 908.0328328457492 339.5004652224087Q901.2542259377522 339.5004652224087 894.3719706060855 346.13396433726814Q887.5104449591527 352.78819313686165 883.551075174971 362.55187464654546Q879.6124350755231 372.3362858409632 879.6124350755231 382.84623600106875Q879.6124350755231 393.37691584590823 883.6339939139067 401.0676288821984Q887.6555527522902 408.75834191848867 895.8645079069288 408.75834191848867L895.8645079069288 408.75834191848867Q907.5145907274009 408.75834191848867 914.8321694384803 395.0145609398892Q922.1497481495596 381.29150964602354 922.1497481495596 366.73927096280056ZM878.8661664251015 360.99714829150025Q884.5253703574659 344.8694535684981 894.1646737587462 337.48968580321696Q903.7832474752925 330.08918835320173 913.7127664628476 330.08918835320173Q923.642285450403 330.08918835320173 930.1928658263269 338.8163856261888Q936.7641758869845 347.5643125839098 936.7641758869845 362.4896855923437L936.7641758869845 362.4896855923437Q936.7641758869845 378.9075959016209 930.5038110973359 392.92086278176157L930.5038110973359 392.92086278176157Q923.4764479725316 408.44739664747965 910.2094497428125 414.56265364399076L910.2094497428125 414.56265364399076Q903.0369788248707 418.00378130982415 894.3719706060855 418.00378130982415L894.3719706060855 418.00378130982415Q882.2865644062008 418.00378130982415 873.186232808003 407.9291545291312Q864.085901209805 397.8545277484384 864.085901209805 379.1148927489603Q864.085901209805 360.39598743421607 872.1497485713062 346.6522064556166Q880.1928662480733 332.92915516175094 894.0817550198103 327.56016681566155L894.0817550198103 327.56016681566155Q897.0668296214972 327.56016681566155 897.0668296214972 330.5452414173484L897.0668296214972 330.5452414173484Q882.2865644062008 340.2467338728304 878.8661664251015 360.99714829150025L878.8661664251015 360.99714829150025ZM970.2011573628231 385.6240137554162Q970.2011573628231 394.12318449632994 973.476447550785 399.49217284241934Q976.7724674234809 404.86116118850873 983.7169118093493 404.86116118850873Q990.640626510484 404.86116118850873 996.4034788665182 398.68371513779584Q1002.1456015378185 392.485539402349 1005.6489182578537 381.9548595575095Q1009.1522349778888 371.444909397404 1011.7641752543647 359.5668000448587Q1014.3761155308406 347.7094203770473 1015.5784372454088 334.27658466945684L1015.5784372454088 334.27658466945684Q1017.817243196674 309.33877393453184 1017.817243196674 294.724346197107Q1017.817243196674 280.08918877494824 1016.6149214821057 272.9374475417403L1016.6149214821057 272.9374475417403Q1031.996347554686 277.85038282368316 1031.996347554686 303.8246777953049L1031.996347554686 303.8246777953049Q1031.996347554686 314.41754669434624 1027.0004935338077 346.50709866247905Q1021.9839098281951 378.59665063061186 1021.9839098281951 393.37691584590823Q1021.9839098281951 408.1571810612045 1023.331339335901 418.4598343739707L1023.331339335901 418.4598343739707Q1014.8321685949873 415.6198675654215 1011.7019862001629 408.3022888543421Q1008.5510741206047 400.98471014326265 1008.5510741206047 389.64557259379967L1008.5510741206047 389.64557259379967Q1003.928354424937 402.47724744410607 994.828022826739 409.93993394832296Q985.7276912285412 417.40262045253996 975.9432800341234 417.40262045253996Q966.1795985244396 417.40262045253996 960.1265305821303 409.8777448941212Q954.073462639821 402.33213965096854 954.073462639821 387.6969822288097L954.073462639821 387.6969822288097Q954.073462639821 363.3810620359029 966.8429484359256 347.7094203770473Q979.6124342320301 332.0377787181917 998.5593660788475 332.0377787181917L998.5593660788475 332.0377787181917Q1003.928354424937 332.0377787181917 1010.043611421448 333.67542381217265L1010.043611421448 333.67542381217265Q999.9067955865532 335.3130689061536 991.8429482250524 341.0551915774539Q983.7791008635512 346.81804393348807 979.301488961021 354.5709460239801L979.301488961021 354.5709460239801Q970.2011573628231 370.38769547597326 970.2011573628231 385.6240137554162L970.2011573628231 385.6240137554162ZM1088.1116041294508 337.4067670642812L1088.1116041294508 337.4067670642812Q1079.1563803243905 337.4067670642812 1072.9582045889435 347.7094203770473Q1066.7600288534968 358.0120736898135 1064.687060380103 371.88023277681657L1064.687060380103 371.88023277681657L1068.8537270116242 371.88023277681657Q1076.7724665799878 371.88023277681657 1082.5975079902237 369.64142682555155Q1088.4018197157259 367.4026208742864 1091.5527317952842 363.8163854153155L1091.5527317952842 363.8163854153155Q1097.5228809986575 356.9548597683828 1097.5228809986575 348.3105812343315L1097.5228809986575 348.3105812343315Q1097.5228809986575 343.3769162676547 1095.201156308457 340.39184166596795Q1092.8794316182561 337.4067670642812 1088.1116041294508 337.4067670642812ZM1109.1522341343957 397.8545277484384Q1102.2907084874628 409.0485575047637 1094.0817533328243 413.5261694072939Q1085.8727981781858 418.00378130982415 1075.0519027470712 418.00378130982415Q1064.2310073159565 418.00378130982415 1056.1671599544554 408.44739664747965Q1048.1033125929544 398.89101198513515 1048.1033125929544 381.5817252322987L1048.1033125929544 381.5817252322987Q1048.1033125929544 361.8885247350595 1058.7169111767296 346.3619908693415L1058.7169111767296 346.3619908693415Q1063.9407917296815 338.8993043651245 1072.3570437316594 334.27658466945684Q1080.7940254183713 329.65386497378915 1090.9515709379998 329.65386497378915L1090.9515709379998 329.65386497378915Q1113.339630450651 329.65386497378915 1113.339630450651 351.2956558360182L1113.339630450651 351.2956558360182Q1113.339630450651 364.27243847946215 1103.2650036699579 371.6522062447433Q1093.190376889265 379.0527036947584 1079.902648974812 379.0527036947584L1079.902648974812 379.0527036947584Q1071.0925329628894 379.0527036947584 1064.085899522819 377.41505860077757L1064.085899522819 377.41505860077757Q1063.9407917296815 378.9075959016209 1063.9407917296815 382.03777829644525L1063.9407917296815 382.03777829644525Q1063.9407917296815 408.44739664747965 1079.612433388537 408.44739664747965L1079.612433388537 408.44739664747965Q1094.3719689190993 408.44739664747965 1103.638137995169 393.8329689100548L1103.638137995169 393.8329689100548Q1109.1522341343957 394.5792375604765 1109.1522341343957 397.8545277484384L1109.1522341343957 397.8545277484384Z " fill="#e2703a" transform="matrix(0.7859237297046472,0,0,0.785923729704647,0,26.547733658379116)"/></g></svg>